<svg width="788" height="116" viewBox="0 0 788 116" fill="none" xmlns="http://www.w3.org/2000/svg">
<path d="M42.6216 0L83 23.0566V52.3112L68.2943 59.9968L30.6577 37.6839L42.6216 30.4942L68.5435 44.8736L68.2943 28.5109L41.3754 14.3794L13.7087 29.2546V45.3694L54.3363 68.426L42.6216 75.3678L0 52.3112V23.0566L42.6216 0Z" fill="#0193FF"/>
<path d="M0 83.9464V69.6426L42.1269 91.8382L83 69.6426V83.9464L42.1269 105.895L0 83.9464Z" fill="#0193FF"/>
<path d="M116.353 58.371C114.329 57.681 112.489 56.991 110.833 56.301C109.177 55.565 107.751 54.691 106.555 53.679C105.359 52.667 104.416 51.471 103.726 50.091C103.082 48.665 102.76 46.94 102.76 44.916C102.76 41.006 104.255 37.878 107.245 35.532C110.281 33.186 114.513 32.013 119.941 32.013C121.919 32.013 123.759 32.151 125.461 32.427C127.163 32.703 128.612 33.14 129.808 33.738C131.05 34.29 132.016 35.026 132.706 35.946C133.396 36.82 133.741 37.855 133.741 39.051C133.741 40.247 133.465 41.282 132.913 42.156C132.361 42.984 131.694 43.697 130.912 44.295C129.9 43.651 128.543 43.099 126.841 42.639C125.139 42.133 123.276 41.88 121.252 41.88C119.182 41.88 117.664 42.179 116.698 42.777C115.732 43.329 115.249 44.042 115.249 44.916C115.249 45.606 115.548 46.181 116.146 46.641C116.744 47.055 117.641 47.446 118.837 47.814L122.494 48.987C126.818 50.367 130.13 52.138 132.43 54.3C134.776 56.416 135.949 59.314 135.949 62.994C135.949 66.904 134.408 70.078 131.326 72.516C128.244 74.908 123.713 76.104 117.733 76.104C115.617 76.104 113.639 75.92 111.799 75.552C110.005 75.23 108.418 74.747 107.038 74.103C105.704 73.413 104.646 72.585 103.864 71.619C103.128 70.607 102.76 69.457 102.76 68.169C102.76 66.835 103.151 65.708 103.933 64.788C104.715 63.822 105.566 63.086 106.486 62.58C107.774 63.592 109.338 64.466 111.178 65.202C113.064 65.938 115.111 66.306 117.319 66.306C119.573 66.306 121.16 65.961 122.08 65.271C123 64.581 123.46 63.776 123.46 62.856C123.46 61.936 123.092 61.246 122.356 60.786C121.62 60.28 120.585 59.797 119.251 59.337L116.353 58.371ZM151.659 34.428C152.441 33.968 153.614 33.531 155.178 33.117C156.788 32.703 158.398 32.496 160.008 32.496C162.308 32.496 164.332 32.841 166.08 33.531C167.874 34.175 169.024 35.21 169.53 36.636C170.358 39.028 171.255 41.811 172.221 44.985C173.187 48.159 174.153 51.448 175.119 54.852C176.085 58.21 177.028 61.545 177.948 64.857C178.868 68.123 179.673 71.021 180.363 73.551C179.811 74.195 178.983 74.701 177.879 75.069C176.775 75.483 175.464 75.69 173.946 75.69C172.842 75.69 171.899 75.598 171.117 75.414C170.381 75.23 169.76 74.954 169.254 74.586C168.794 74.218 168.403 73.735 168.081 73.137C167.805 72.539 167.552 71.849 167.322 71.067L166.08 66.306H153.591C153.223 67.686 152.855 69.112 152.487 70.584C152.119 72.056 151.751 73.482 151.383 74.862C150.739 75.092 150.049 75.276 149.313 75.414C148.623 75.598 147.772 75.69 146.76 75.69C144.414 75.69 142.666 75.299 141.516 74.517C140.412 73.689 139.86 72.562 139.86 71.136C139.86 70.492 139.952 69.848 140.136 69.204C140.32 68.56 140.527 67.801 140.757 66.927C141.079 65.685 141.516 64.144 142.068 62.304C142.666 60.464 143.31 58.486 144 56.37C144.69 54.208 145.426 52 146.208 49.746C146.99 47.492 147.726 45.376 148.416 43.398C149.106 41.374 149.727 39.58 150.279 38.016C150.877 36.452 151.337 35.256 151.659 34.428ZM159.939 43.329C159.295 45.261 158.559 47.423 157.731 49.815C156.949 52.161 156.236 54.553 155.592 56.991H164.148C163.504 54.507 162.837 52.092 162.147 49.746C161.503 47.354 160.905 45.215 160.353 43.329H159.939ZM198.024 61.476V74.724C197.518 74.862 196.713 75 195.609 75.138C194.551 75.276 193.493 75.345 192.435 75.345C191.377 75.345 190.434 75.253 189.606 75.069C188.824 74.931 188.157 74.655 187.605 74.241C187.099 73.827 186.708 73.252 186.432 72.516C186.156 71.78 186.018 70.814 186.018 69.618V37.119C186.018 36.153 186.271 35.417 186.777 34.911C187.329 34.359 188.065 33.922 188.985 33.6C190.549 33.048 192.366 32.657 194.436 32.427C196.506 32.151 198.714 32.013 201.06 32.013C207.408 32.013 212.192 33.347 215.412 36.015C218.632 38.683 220.242 42.294 220.242 46.848C220.242 49.7 219.506 52.138 218.034 54.162C216.562 56.186 214.814 57.75 212.79 58.854C214.446 61.108 216.079 63.224 217.689 65.202C219.299 67.18 220.564 68.974 221.484 70.584C221.024 72.194 220.173 73.436 218.931 74.31C217.735 75.138 216.378 75.552 214.86 75.552C213.848 75.552 212.974 75.437 212.238 75.207C211.502 74.977 210.858 74.655 210.306 74.241C209.754 73.827 209.248 73.321 208.788 72.723C208.328 72.125 207.891 71.481 207.477 70.791L201.681 61.476H198.024ZM202.371 52.299C204.119 52.299 205.499 51.862 206.511 50.988C207.523 50.068 208.029 48.734 208.029 46.986C208.029 45.238 207.454 43.927 206.304 43.053C205.2 42.133 203.429 41.673 200.991 41.673C200.301 41.673 199.749 41.696 199.335 41.742C198.921 41.788 198.461 41.857 197.955 41.949V52.299H202.371ZM240.209 59.475V74.724C239.703 74.862 238.898 75 237.794 75.138C236.69 75.276 235.609 75.345 234.551 75.345C233.493 75.345 232.55 75.253 231.722 75.069C230.94 74.931 230.273 74.655 229.721 74.241C229.169 73.827 228.755 73.252 228.479 72.516C228.203 71.78 228.065 70.814 228.065 69.618V33.186C228.571 33.094 229.376 32.979 230.48 32.841C231.584 32.657 232.642 32.565 233.654 32.565C234.712 32.565 235.632 32.657 236.414 32.841C237.242 32.979 237.932 33.255 238.484 33.669C239.036 34.083 239.45 34.658 239.726 35.394C240.002 36.13 240.14 37.096 240.14 38.292V49.263L254.492 32.772C257.62 32.772 259.851 33.37 261.185 34.566C262.565 35.716 263.255 37.096 263.255 38.706C263.255 39.902 262.956 41.029 262.358 42.087C261.76 43.145 260.794 44.341 259.46 45.675L250.835 54.3C251.985 55.588 253.181 56.899 254.423 58.233C255.665 59.567 256.884 60.901 258.08 62.235C259.276 63.523 260.426 64.765 261.53 65.961C262.68 67.157 263.715 68.238 264.635 69.204C264.635 70.216 264.451 71.113 264.083 71.895C263.715 72.677 263.209 73.344 262.565 73.896C261.967 74.448 261.277 74.862 260.495 75.138C259.713 75.414 258.885 75.552 258.011 75.552C256.125 75.552 254.584 75.092 253.388 74.172C252.192 73.206 251.042 72.079 249.938 70.791L240.209 59.475ZM305.651 41.604C302.109 41.604 299.395 42.685 297.509 44.847C295.623 47.009 294.68 50.068 294.68 54.024C294.68 58.026 295.715 61.108 297.785 63.27C299.901 65.432 302.73 66.513 306.272 66.513C308.158 66.513 309.745 66.26 311.033 65.754C312.367 65.248 313.632 64.673 314.828 64.029C315.61 64.673 316.208 65.455 316.622 66.375C317.082 67.249 317.312 68.284 317.312 69.48C317.312 71.366 316.254 72.976 314.138 74.31C312.068 75.598 308.894 76.242 304.616 76.242C301.534 76.242 298.636 75.805 295.922 74.931C293.208 74.057 290.839 72.723 288.815 70.929C286.791 69.089 285.181 66.789 283.985 64.029C282.835 61.223 282.26 57.888 282.26 54.024C282.26 50.436 282.812 47.285 283.916 44.571C285.066 41.811 286.607 39.488 288.539 37.602C290.517 35.716 292.817 34.29 295.439 33.324C298.061 32.358 300.867 31.875 303.857 31.875C308.089 31.875 311.355 32.565 313.655 33.945C316.001 35.325 317.174 37.096 317.174 39.258C317.174 40.454 316.875 41.489 316.277 42.363C315.679 43.237 314.989 43.927 314.207 44.433C313.011 43.651 311.723 42.984 310.343 42.432C309.009 41.88 307.445 41.604 305.651 41.604ZM321.005 54.024C321.005 50.436 321.557 47.262 322.661 44.502C323.811 41.742 325.352 39.442 327.284 37.602C329.262 35.716 331.562 34.29 334.184 33.324C336.852 32.358 339.727 31.875 342.809 31.875C345.891 31.875 348.743 32.358 351.365 33.324C354.033 34.29 356.356 35.716 358.334 37.602C360.312 39.442 361.853 41.742 362.957 44.502C364.107 47.262 364.682 50.436 364.682 54.024C364.682 57.612 364.13 60.809 363.026 63.615C361.922 66.375 360.381 68.698 358.403 70.584C356.471 72.424 354.171 73.827 351.503 74.793C348.835 75.759 345.937 76.242 342.809 76.242C339.681 76.242 336.783 75.759 334.115 74.793C331.447 73.781 329.147 72.332 327.215 70.446C325.283 68.56 323.765 66.237 322.661 63.477C321.557 60.717 321.005 57.566 321.005 54.024ZM333.425 54.024C333.425 58.21 334.276 61.338 335.978 63.408C337.68 65.478 339.957 66.513 342.809 66.513C345.707 66.513 348.007 65.478 349.709 63.408C351.411 61.338 352.262 58.21 352.262 54.024C352.262 49.884 351.411 46.779 349.709 44.709C348.053 42.639 345.776 41.604 342.878 41.604C340.026 41.604 337.726 42.639 335.978 44.709C334.276 46.733 333.425 49.838 333.425 54.024ZM409.471 73.551C408.827 74.195 407.884 74.678 406.642 75C405.446 75.368 403.997 75.552 402.295 75.552C400.593 75.552 398.983 75.299 397.465 74.793C395.947 74.287 394.705 73.068 393.739 71.136L386.908 57.198C386.218 55.772 385.597 54.438 385.045 53.196C384.493 51.908 383.895 50.436 383.251 48.78L382.837 48.849C383.021 51.333 383.113 53.863 383.113 56.439C383.159 59.015 383.182 61.545 383.182 64.029V74.724C382.676 74.862 381.894 75 380.836 75.138C379.824 75.276 378.812 75.345 377.8 75.345C376.788 75.345 375.891 75.276 375.109 75.138C374.327 75 373.683 74.724 373.177 74.31C372.671 73.896 372.28 73.344 372.004 72.654C371.728 71.918 371.59 70.975 371.59 69.825V35.325C372.234 34.405 373.223 33.715 374.557 33.255C375.891 32.795 377.317 32.565 378.835 32.565C380.537 32.565 382.147 32.841 383.665 33.393C385.229 33.899 386.471 35.095 387.391 36.981L394.291 50.919C394.981 52.345 395.602 53.702 396.154 54.99C396.706 56.232 397.304 57.681 397.948 59.337L398.293 59.268C398.109 56.784 397.994 54.3 397.948 51.816C397.902 49.332 397.879 46.848 397.879 44.364V33.186C398.385 33.048 399.144 32.91 400.156 32.772C401.214 32.634 402.249 32.565 403.261 32.565C405.285 32.565 406.826 32.933 407.884 33.669C408.942 34.359 409.471 35.831 409.471 38.085V73.551ZM430.29 58.371C428.266 57.681 426.426 56.991 424.77 56.301C423.114 55.565 421.688 54.691 420.492 53.679C419.296 52.667 418.353 51.471 417.663 50.091C417.019 48.665 416.697 46.94 416.697 44.916C416.697 41.006 418.192 37.878 421.182 35.532C424.218 33.186 428.45 32.013 433.878 32.013C435.856 32.013 437.696 32.151 439.398 32.427C441.1 32.703 442.549 33.14 443.745 33.738C444.987 34.29 445.953 35.026 446.643 35.946C447.333 36.82 447.678 37.855 447.678 39.051C447.678 40.247 447.402 41.282 446.85 42.156C446.298 42.984 445.631 43.697 444.849 44.295C443.837 43.651 442.48 43.099 440.778 42.639C439.076 42.133 437.213 41.88 435.189 41.88C433.119 41.88 431.601 42.179 430.635 42.777C429.669 43.329 429.186 44.042 429.186 44.916C429.186 45.606 429.485 46.181 430.083 46.641C430.681 47.055 431.578 47.446 432.774 47.814L436.431 48.987C440.755 50.367 444.067 52.138 446.367 54.3C448.713 56.416 449.886 59.314 449.886 62.994C449.886 66.904 448.345 70.078 445.263 72.516C442.181 74.908 437.65 76.104 431.67 76.104C429.554 76.104 427.576 75.92 425.736 75.552C423.942 75.23 422.355 74.747 420.975 74.103C419.641 73.413 418.583 72.585 417.801 71.619C417.065 70.607 416.697 69.457 416.697 68.169C416.697 66.835 417.088 65.708 417.87 64.788C418.652 63.822 419.503 63.086 420.423 62.58C421.711 63.592 423.275 64.466 425.115 65.202C427.001 65.938 429.048 66.306 431.256 66.306C433.51 66.306 435.097 65.961 436.017 65.271C436.937 64.581 437.397 63.776 437.397 62.856C437.397 61.936 437.029 61.246 436.293 60.786C435.557 60.28 434.522 59.797 433.188 59.337L430.29 58.371ZM453.617 42.846C453.295 42.34 452.996 41.65 452.72 40.776C452.444 39.902 452.306 38.982 452.306 38.016C452.306 36.222 452.697 34.934 453.479 34.152C454.307 33.37 455.365 32.979 456.653 32.979H486.737C487.059 33.485 487.358 34.175 487.634 35.049C487.91 35.923 488.048 36.843 488.048 37.809C488.048 39.603 487.634 40.891 486.806 41.673C486.024 42.455 484.989 42.846 483.701 42.846H476.042V74.724C475.536 74.862 474.731 75 473.627 75.138C472.569 75.276 471.511 75.345 470.453 75.345C469.395 75.345 468.452 75.253 467.624 75.069C466.842 74.931 466.175 74.655 465.623 74.241C465.071 73.827 464.657 73.252 464.381 72.516C464.105 71.78 463.967 70.814 463.967 69.618V42.846H453.617ZM505.896 61.476V74.724C505.39 74.862 504.585 75 503.481 75.138C502.423 75.276 501.365 75.345 500.307 75.345C499.249 75.345 498.306 75.253 497.478 75.069C496.696 74.931 496.029 74.655 495.477 74.241C494.971 73.827 494.58 73.252 494.304 72.516C494.028 71.78 493.89 70.814 493.89 69.618V37.119C493.89 36.153 494.143 35.417 494.649 34.911C495.201 34.359 495.937 33.922 496.857 33.6C498.421 33.048 500.238 32.657 502.308 32.427C504.378 32.151 506.586 32.013 508.932 32.013C515.28 32.013 520.064 33.347 523.284 36.015C526.504 38.683 528.114 42.294 528.114 46.848C528.114 49.7 527.378 52.138 525.906 54.162C524.434 56.186 522.686 57.75 520.662 58.854C522.318 61.108 523.951 63.224 525.561 65.202C527.171 67.18 528.436 68.974 529.356 70.584C528.896 72.194 528.045 73.436 526.803 74.31C525.607 75.138 524.25 75.552 522.732 75.552C521.72 75.552 520.846 75.437 520.11 75.207C519.374 74.977 518.73 74.655 518.178 74.241C517.626 73.827 517.12 73.321 516.66 72.723C516.2 72.125 515.763 71.481 515.349 70.791L509.553 61.476H505.896ZM510.243 52.299C511.991 52.299 513.371 51.862 514.383 50.988C515.395 50.068 515.901 48.734 515.901 46.986C515.901 45.238 515.326 43.927 514.176 43.053C513.072 42.133 511.301 41.673 508.863 41.673C508.173 41.673 507.621 41.696 507.207 41.742C506.793 41.788 506.333 41.857 505.827 41.949V52.299H510.243ZM572.316 59.544C572.316 62.028 571.879 64.305 571.005 66.375C570.177 68.399 568.958 70.147 567.348 71.619C565.738 73.045 563.783 74.149 561.483 74.931C559.183 75.713 556.584 76.104 553.686 76.104C550.788 76.104 548.189 75.713 545.889 74.931C543.589 74.149 541.634 73.045 540.024 71.619C538.414 70.147 537.172 68.399 536.298 66.375C535.47 64.305 535.056 62.028 535.056 59.544V33.186C535.562 33.094 536.367 32.979 537.471 32.841C538.575 32.657 539.633 32.565 540.645 32.565C541.703 32.565 542.623 32.657 543.405 32.841C544.233 32.979 544.923 33.255 545.475 33.669C546.027 34.083 546.441 34.658 546.717 35.394C546.993 36.13 547.131 37.096 547.131 38.292V59.337C547.131 61.545 547.729 63.27 548.925 64.512C550.167 65.754 551.754 66.375 553.686 66.375C555.664 66.375 557.251 65.754 558.447 64.512C559.643 63.27 560.241 61.545 560.241 59.337V33.186C560.747 33.094 561.552 32.979 562.656 32.841C563.76 32.657 564.818 32.565 565.83 32.565C566.888 32.565 567.808 32.657 568.59 32.841C569.418 32.979 570.108 33.255 570.66 33.669C571.212 34.083 571.626 34.658 571.902 35.394C572.178 36.13 572.316 37.096 572.316 38.292V59.544ZM602.405 41.604C598.863 41.604 596.149 42.685 594.263 44.847C592.377 47.009 591.434 50.068 591.434 54.024C591.434 58.026 592.469 61.108 594.539 63.27C596.655 65.432 599.484 66.513 603.026 66.513C604.912 66.513 606.499 66.26 607.787 65.754C609.121 65.248 610.386 64.673 611.582 64.029C612.364 64.673 612.962 65.455 613.376 66.375C613.836 67.249 614.066 68.284 614.066 69.48C614.066 71.366 613.008 72.976 610.892 74.31C608.822 75.598 605.648 76.242 601.37 76.242C598.288 76.242 595.39 75.805 592.676 74.931C589.962 74.057 587.593 72.723 585.569 70.929C583.545 69.089 581.935 66.789 580.739 64.029C579.589 61.223 579.014 57.888 579.014 54.024C579.014 50.436 579.566 47.285 580.67 44.571C581.82 41.811 583.361 39.488 585.293 37.602C587.271 35.716 589.571 34.29 592.193 33.324C594.815 32.358 597.621 31.875 600.611 31.875C604.843 31.875 608.109 32.565 610.409 33.945C612.755 35.325 613.928 37.096 613.928 39.258C613.928 40.454 613.629 41.489 613.031 42.363C612.433 43.237 611.743 43.927 610.961 44.433C609.765 43.651 608.477 42.984 607.097 42.432C605.763 41.88 604.199 41.604 602.405 41.604ZM619.514 42.846C619.192 42.34 618.893 41.65 618.617 40.776C618.341 39.902 618.203 38.982 618.203 38.016C618.203 36.222 618.594 34.934 619.376 34.152C620.204 33.37 621.262 32.979 622.55 32.979H652.634C652.956 33.485 653.255 34.175 653.531 35.049C653.807 35.923 653.945 36.843 653.945 37.809C653.945 39.603 653.531 40.891 652.703 41.673C651.921 42.455 650.886 42.846 649.598 42.846H641.939V74.724C641.433 74.862 640.628 75 639.524 75.138C638.466 75.276 637.408 75.345 636.35 75.345C635.292 75.345 634.349 75.253 633.521 75.069C632.739 74.931 632.072 74.655 631.52 74.241C630.968 73.827 630.554 73.252 630.278 72.516C630.002 71.78 629.864 70.814 629.864 69.618V42.846H619.514ZM671.862 74.724C671.356 74.862 670.551 75 669.447 75.138C668.389 75.276 667.331 75.345 666.273 75.345C665.215 75.345 664.272 75.253 663.444 75.069C662.662 74.931 661.995 74.655 661.443 74.241C660.891 73.827 660.477 73.252 660.201 72.516C659.925 71.78 659.787 70.814 659.787 69.618V33.186C660.293 33.094 661.098 32.979 662.202 32.841C663.306 32.657 664.364 32.565 665.376 32.565C666.434 32.565 667.354 32.657 668.136 32.841C668.964 32.979 669.654 33.255 670.206 33.669C670.758 34.083 671.172 34.658 671.448 35.394C671.724 36.13 671.862 37.096 671.862 38.292V74.724ZM678.74 54.024C678.74 50.436 679.292 47.262 680.396 44.502C681.546 41.742 683.087 39.442 685.019 37.602C686.997 35.716 689.297 34.29 691.919 33.324C694.587 32.358 697.462 31.875 700.544 31.875C703.626 31.875 706.478 32.358 709.1 33.324C711.768 34.29 714.091 35.716 716.069 37.602C718.047 39.442 719.588 41.742 720.692 44.502C721.842 47.262 722.417 50.436 722.417 54.024C722.417 57.612 721.865 60.809 720.761 63.615C719.657 66.375 718.116 68.698 716.138 70.584C714.206 72.424 711.906 73.827 709.238 74.793C706.57 75.759 703.672 76.242 700.544 76.242C697.416 76.242 694.518 75.759 691.85 74.793C689.182 73.781 686.882 72.332 684.95 70.446C683.018 68.56 681.5 66.237 680.396 63.477C679.292 60.717 678.74 57.566 678.74 54.024ZM691.16 54.024C691.16 58.21 692.011 61.338 693.713 63.408C695.415 65.478 697.692 66.513 700.544 66.513C703.442 66.513 705.742 65.478 707.444 63.408C709.146 61.338 709.997 58.21 709.997 54.024C709.997 49.884 709.146 46.779 707.444 44.709C705.788 42.639 703.511 41.604 700.613 41.604C697.761 41.604 695.461 42.639 693.713 44.709C692.011 46.733 691.16 49.838 691.16 54.024ZM767.207 73.551C766.563 74.195 765.62 74.678 764.378 75C763.182 75.368 761.733 75.552 760.031 75.552C758.329 75.552 756.719 75.299 755.201 74.793C753.683 74.287 752.441 73.068 751.475 71.136L744.644 57.198C743.954 55.772 743.333 54.438 742.781 53.196C742.229 51.908 741.631 50.436 740.987 48.78L740.573 48.849C740.757 51.333 740.849 53.863 740.849 56.439C740.895 59.015 740.918 61.545 740.918 64.029V74.724C740.412 74.862 739.63 75 738.572 75.138C737.56 75.276 736.548 75.345 735.536 75.345C734.524 75.345 733.627 75.276 732.845 75.138C732.063 75 731.419 74.724 730.913 74.31C730.407 73.896 730.016 73.344 729.74 72.654C729.464 71.918 729.326 70.975 729.326 69.825V35.325C729.97 34.405 730.959 33.715 732.293 33.255C733.627 32.795 735.053 32.565 736.571 32.565C738.273 32.565 739.883 32.841 741.401 33.393C742.965 33.899 744.207 35.095 745.127 36.981L752.027 50.919C752.717 52.345 753.338 53.702 753.89 54.99C754.442 56.232 755.04 57.681 755.684 59.337L756.029 59.268C755.845 56.784 755.73 54.3 755.684 51.816C755.638 49.332 755.615 46.848 755.615 44.364V33.186C756.121 33.048 756.88 32.91 757.892 32.772C758.95 32.634 759.985 32.565 760.997 32.565C763.021 32.565 764.562 32.933 765.62 33.669C766.678 34.359 767.207 35.831 767.207 38.085V73.551Z" fill="white"/>
</svg>
